<?xml version="1.0" standalone="no"?>
<!DOCTYPE svg PUBLIC "-//W3C//DTD SVG 20010904//EN"
 "http://www.w3.org/TR/2001/REC-SVG-20010904/DTD/svg10.dtd">
<svg version="1.0" xmlns="http://www.w3.org/2000/svg"
 width="200.000000pt" height="170.000000pt" viewBox="0 0 200.000000 170.000000"
 preserveAspectRatio="xMidYMid meet">
<metadata>
Created by potrace 1.16, written by Peter Selinger 2001-2019
</metadata>
<g transform="translate(0.000000,170.000000) scale(0.100000,-0.100000)"
fill="#ffffff" stroke="none">
<path d="M947 1658 c-13 -24 -39 -69 -56 -101 -18 -32 -137 -239 -265 -460
-128 -221 -243 -420 -255 -442 -12 -22 -30 -53 -40 -70 -10 -16 -80 -137 -155
-268 -76 -131 -146 -253 -157 -270 -10 -18 -19 -35 -19 -39 0 -5 441 -8 981
-8 781 0 980 3 976 13 -2 6 -61 111 -130 232 -69 121 -124 221 -123 223 2 1
67 4 144 5 77 1 143 5 147 9 4 4 -39 87 -96 185 -56 98 -136 237 -178 308 -41
72 -109 189 -151 260 -42 72 -99 169 -126 217 -27 48 -52 88 -55 88 -3 0 -39
-56 -80 -125 -41 -69 -76 -125 -79 -125 -3 0 -59 92 -124 205 -66 113 -123
205 -127 205 -4 0 -18 -19 -32 -42z m139 -298 c78 -134 93 -168 85 -182 -6
-10 -31 -53 -54 -95 -24 -43 -95 -166 -157 -273 -163 -283 -183 -320 -175
-328 3 -4 187 -8 408 -9 l402 -3 64 -107 c35 -60 85 -144 111 -188 26 -44 46
-81 45 -83 -4 -5 -1673 -7 -1671 -2 5 9 238 414 291 505 74 128 113 195 285
495 217 379 254 440 262 437 5 -1 51 -76 104 -167z m354 -68 c25 -42 60 -102
77 -132 18 -30 36 -61 40 -69 3 -8 35 -64 71 -125 35 -61 75 -129 87 -151 13
-22 50 -87 84 -145 l60 -105 -101 -3 c-87 -2 -104 0 -118 15 -14 15 -62 96
-201 338 -12 22 -39 69 -59 105 -20 36 -51 90 -68 121 l-32 55 52 87 c28 48
54 87 57 87 3 0 26 -35 51 -78z m-189 -220 c161 -279 253 -440 269 -472 l20
-40 -310 0 c-170 0 -310 2 -310 5 0 3 32 60 71 128 39 67 87 151 107 187 19
36 43 76 52 90 9 14 30 49 45 78 16 28 31 52 34 52 3 0 13 -12 22 -28z"/>
</g>
</svg>
